<svg width="198" height="19" viewBox="0 0 198 19" fill="none" xmlns="http://www.w3.org/2000/svg">
<g filter="url(#filter0_b_1_2)">
<path d="M4.16953 0.9375V18H0.653908V0.9375L4.16953 0.9375ZM10.9664 8.22656V10.9688H3.2086V8.22656H10.9664ZM11.7867 0.9375V3.69141H3.2086V0.9375L11.7867 0.9375ZM22.4602 15.1406V9.49219C22.4602 9.08594 22.3938 8.73828 22.2609 8.44922C22.1281 8.15234 21.9211 7.92188 21.6398 7.75781C21.3664 7.59375 21.0109 7.51172 20.5734 7.51172C20.1984 7.51172 19.8742 7.57813 19.6008 7.71094C19.3273 7.83594 19.1164 8.01953 18.968 8.26172C18.8195 8.49609 18.7453 8.77344 18.7453 9.09375H15.3703C15.3703 8.55469 15.4953 8.04297 15.7453 7.55859C15.9953 7.07422 16.3586 6.64844 16.8352 6.28125C17.3117 5.90625 17.8781 5.61328 18.5344 5.40234C19.1984 5.19141 19.9406 5.08594 20.7609 5.08594C21.7453 5.08594 22.6203 5.25 23.3859 5.57813C24.1516 5.90625 24.7531 6.39844 25.1906 7.05469C25.6359 7.71094 25.8586 8.53125 25.8586 9.51563V14.9414C25.8586 15.6367 25.9016 16.207 25.9875 16.6523C26.0734 17.0898 26.1984 17.4727 26.3625 17.8008V18H22.9523C22.7883 17.6563 22.6633 17.2266 22.5773 16.7109C22.4992 16.1875 22.4602 15.6641 22.4602 15.1406ZM22.9055 10.2773L22.9289 12.1875H21.0422C20.5969 12.1875 20.2102 12.2383 19.882 12.3398C19.5539 12.4414 19.2844 12.5859 19.0734 12.7734C18.8625 12.9531 18.7063 13.1641 18.6047 13.4063C18.5109 13.6484 18.4641 13.9141 18.4641 14.2031C18.4641 14.4922 18.5305 14.7539 18.6633 14.9883C18.7961 15.2148 18.9875 15.3945 19.2375 15.5273C19.4875 15.6523 19.7805 15.7148 20.1164 15.7148C20.6242 15.7148 21.0656 15.6133 21.4406 15.4102C21.8156 15.207 22.1047 14.957 22.3078 14.6602C22.5188 14.3633 22.6281 14.082 22.6359 13.8164L23.5266 15.2461C23.4016 15.5664 23.2297 15.8984 23.0109 16.2422C22.8 16.5859 22.5305 16.9102 22.2023 17.2148C21.8742 17.5117 21.4797 17.7578 21.0188 17.9531C20.5578 18.1406 20.0109 18.2344 19.3781 18.2344C18.5734 18.2344 17.843 18.0742 17.1867 17.7539C16.5383 17.4258 16.0227 16.9766 15.6398 16.4063C15.2648 15.8281 15.0773 15.1719 15.0773 14.4375C15.0773 13.7734 15.2023 13.1836 15.4523 12.668C15.7023 12.1523 16.0695 11.7188 16.5539 11.3672C17.0461 11.0078 17.6594 10.7383 18.3938 10.5586C19.1281 10.3711 19.9797 10.2773 20.9484 10.2773H22.9055ZM30.3211 11.7891V11.543C30.3211 10.6133 30.4539 9.75781 30.7195 8.97656C30.9852 8.1875 31.3719 7.50391 31.8797 6.92578C32.3875 6.34766 33.0125 5.89844 33.7547 5.57813C34.4969 5.25 35.3484 5.08594 36.3094 5.08594C37.2703 5.08594 38.1258 5.25 38.8758 5.57813C39.6258 5.89844 40.2547 6.34766 40.7625 6.92578C41.2781 7.50391 41.6687 8.1875 41.9344 8.97656C42.2 9.75781 42.3328 10.6133 42.3328 11.543V11.7891C42.3328 12.7109 42.2 13.5664 41.9344 14.3555C41.6687 15.1367 41.2781 15.8203 40.7625 16.4063C40.2547 16.9844 39.6297 17.4336 38.8875 17.7539C38.1453 18.0742 37.2937 18.2344 36.3328 18.2344C35.3719 18.2344 34.5164 18.0742 33.7664 17.7539C33.0242 17.4336 32.3953 16.9844 31.8797 16.4063C31.3719 15.8203 30.9852 15.1367 30.7195 14.3555C30.4539 13.5664 30.3211 12.7109 30.3211 11.7891ZM33.6961 11.543V11.7891C33.6961 12.3203 33.743 12.8164 33.8367 13.2773C33.9305 13.7383 34.0789 14.1445 34.282 14.4961C34.493 14.8398 34.7664 15.1094 35.1023 15.3047C35.4383 15.5 35.8484 15.5977 36.3328 15.5977C36.8016 15.5977 37.2039 15.5 37.5398 15.3047C37.8758 15.1094 38.1453 14.8398 38.3484 14.4961C38.5516 14.1445 38.7 13.7383 38.7937 13.2773C38.8953 12.8164 38.9461 12.3203 38.9461 11.7891V11.543C38.9461 11.0273 38.8953 10.543 38.7937 10.0898C38.7 9.62891 38.5477 9.22266 38.3367 8.87109C38.1336 8.51172 37.8641 8.23047 37.5281 8.02734C37.1922 7.82422 36.7859 7.72266 36.3094 7.72266C35.8328 7.72266 35.4266 7.82422 35.0906 8.02734C34.7625 8.23047 34.493 8.51172 34.282 8.87109C34.0789 9.22266 33.9305 9.62891 33.8367 10.0898C33.743 10.543 33.6961 11.0273 33.6961 11.543ZM50.3695 0V18H46.9828V0H50.3695ZM62.4023 15.1406V9.49219C62.4023 9.08594 62.3359 8.73828 62.2031 8.44922C62.0703 8.15234 61.8633 7.92188 61.582 7.75781C61.3086 7.59375 60.9531 7.51172 60.5156 7.51172C60.1406 7.51172 59.8164 7.57813 59.543 7.71094C59.2695 7.83594 59.0586 8.01953 58.9102 8.26172C58.7617 8.49609 58.6875 8.77344 58.6875 9.09375H55.3125C55.3125 8.55469 55.4375 8.04297 55.6875 7.55859C55.9375 7.07422 56.3008 6.64844 56.7773 6.28125C57.2539 5.90625 57.8203 5.61328 58.4766 5.40234C59.1406 5.19141 59.8828 5.08594 60.7031 5.08594C61.6875 5.08594 62.5625 5.25 63.3281 5.57813C64.0938 5.90625 64.6953 6.39844 65.1328 7.05469C65.5781 7.71094 65.8008 8.53125 65.8008 9.51563V14.9414C65.8008 15.6367 65.8438 16.207 65.9297 16.6523C66.0156 17.0898 66.1406 17.4727 66.3047 17.8008V18H62.8945C62.7305 17.6563 62.6055 17.2266 62.5195 16.7109C62.4414 16.1875 62.4023 15.6641 62.4023 15.1406ZM62.8477 10.2773L62.8711 12.1875H60.9844C60.5391 12.1875 60.1523 12.2383 59.8242 12.3398C59.4961 12.4414 59.2266 12.5859 59.0156 12.7734C58.8047 12.9531 58.6484 13.1641 58.5469 13.4063C58.4531 13.6484 58.4062 13.9141 58.4062 14.2031C58.4062 14.4922 58.4727 14.7539 58.6055 14.9883C58.7383 15.2148 58.9297 15.3945 59.1797 15.5273C59.4297 15.6523 59.7227 15.7148 60.0586 15.7148C60.5664 15.7148 61.0078 15.6133 61.3828 15.4102C61.7578 15.207 62.0469 14.957 62.25 14.6602C62.4609 14.3633 62.5703 14.082 62.5781 13.8164L63.4688 15.2461C63.3438 15.5664 63.1719 15.8984 62.9531 16.2422C62.7422 16.5859 62.4727 16.9102 62.1445 17.2148C61.8164 17.5117 61.4219 17.7578 60.9609 17.9531C60.5 18.1406 59.9531 18.2344 59.3203 18.2344C58.5156 18.2344 57.7852 18.0742 57.1289 17.7539C56.4805 17.4258 55.9648 16.9766 55.582 16.4063C55.207 15.8281 55.0195 15.1719 55.0195 14.4375C55.0195 13.7734 55.1445 13.1836 55.3945 12.668C55.6445 12.1523 56.0117 11.7188 56.4961 11.3672C56.9883 11.0078 57.6016 10.7383 58.3359 10.5586C59.0703 10.3711 59.9219 10.2773 60.8906 10.2773H62.8477ZM77.0133 5.32031V7.71094H69.6305V5.32031H77.0133ZM71.4586 2.19141H74.8336V14.1797C74.8336 14.5469 74.8805 14.8281 74.9742 15.0234C75.0758 15.2188 75.2242 15.3555 75.4195 15.4336C75.6148 15.5039 75.8609 15.5391 76.1578 15.5391C76.3687 15.5391 76.5562 15.5313 76.7203 15.5156C76.8922 15.4922 77.0367 15.4688 77.1539 15.4453L77.1656 17.9297C76.8766 18.0234 76.5641 18.0977 76.2281 18.1523C75.8922 18.207 75.5211 18.2344 75.1148 18.2344C74.3727 18.2344 73.7242 18.1133 73.1695 17.8711C72.6227 17.6211 72.2008 17.2227 71.9039 16.6758C71.607 16.1289 71.4586 15.4102 71.4586 14.5195V2.19141Z" fill="#645CFF"/>
<path d="M91.4367 12.3398H94.9406C94.8703 13.4883 94.5539 14.5078 93.9914 15.3984C93.4367 16.2891 92.6594 16.9844 91.6594 17.4844C90.6672 17.9844 89.4719 18.2344 88.0734 18.2344C86.9797 18.2344 85.9992 18.0469 85.132 17.6719C84.2648 17.2891 83.5227 16.7422 82.9055 16.0313C82.2961 15.3203 81.8313 14.4609 81.5109 13.4531C81.1906 12.4453 81.0305 11.3164 81.0305 10.0664V8.88281C81.0305 7.63281 81.1945 6.50391 81.5227 5.49609C81.8586 4.48047 82.3352 3.61719 82.9523 2.90625C83.5773 2.19531 84.3234 1.64844 85.1906 1.26563C86.0578 0.882813 87.0266 0.691406 88.0969 0.691406C89.5188 0.691406 90.718 0.949219 91.6945 1.46484C92.6789 1.98047 93.4406 2.69141 93.9797 3.59766C94.5266 4.50391 94.8547 5.53516 94.9641 6.69141L91.4484 6.69141C91.4094 6.00391 91.2727 5.42188 91.0383 4.94531C90.8039 4.46094 90.4484 4.09766 89.9719 3.85547C89.5031 3.60547 88.8781 3.48047 88.0969 3.48047C87.5109 3.48047 86.9992 3.58984 86.5617 3.80859C86.1242 4.02734 85.757 4.35938 85.4602 4.80469C85.1633 5.25 84.9406 5.8125 84.7922 6.49219C84.6516 7.16406 84.5813 7.95313 84.5813 8.85938V10.0664C84.5813 10.9492 84.6477 11.7266 84.7805 12.3984C84.9133 13.0625 85.1164 13.625 85.3898 14.0859C85.6711 14.5391 86.0305 14.8828 86.468 15.1172C86.9133 15.3438 87.4484 15.457 88.0734 15.457C88.8078 15.457 89.4133 15.3398 89.8898 15.1055C90.3664 14.8711 90.7297 14.5234 90.9797 14.0625C91.2375 13.6016 91.3898 13.0273 91.4367 12.3398ZM102.731 0V18H99.3563V0L102.731 0ZM102.251 11.2148H101.325C101.333 10.332 101.45 9.51953 101.677 8.77734C101.903 8.02734 102.227 7.37891 102.649 6.83203C103.071 6.27734 103.575 5.84766 104.161 5.54297C104.755 5.23828 105.411 5.08594 106.13 5.08594C106.755 5.08594 107.321 5.17578 107.829 5.35547C108.345 5.52734 108.786 5.80859 109.153 6.19922C109.528 6.58203 109.817 7.08594 110.02 7.71094C110.223 8.33594 110.325 9.09375 110.325 9.98438V18L106.927 18V9.96094C106.927 9.39844 106.845 8.95703 106.68 8.63672C106.524 8.30859 106.294 8.07813 105.989 7.94531C105.692 7.80469 105.325 7.73438 104.888 7.73438C104.403 7.73438 103.989 7.82422 103.645 8.00391C103.309 8.18359 103.04 8.43359 102.837 8.75391C102.634 9.06641 102.485 9.43359 102.391 9.85547C102.298 10.2773 102.251 10.7305 102.251 11.2148ZM121.127 18.2344C120.143 18.2344 119.26 18.0781 118.479 17.7656C117.698 17.4453 117.034 17.0039 116.487 16.4414C115.948 15.8789 115.534 15.2266 115.245 14.4844C114.955 13.7344 114.811 12.9375 114.811 12.0938V11.625C114.811 10.6641 114.948 9.78516 115.221 8.98828C115.495 8.19141 115.885 7.5 116.393 6.91406C116.909 6.32813 117.534 5.87891 118.268 5.56641C119.002 5.24609 119.83 5.08594 120.752 5.08594C121.651 5.08594 122.448 5.23438 123.143 5.53125C123.838 5.82813 124.42 6.25 124.889 6.79688C125.366 7.34375 125.725 8 125.967 8.76563C126.209 9.52344 126.33 10.3672 126.33 11.2969V12.7031H116.252V10.4531H123.014V10.1953C123.014 9.72656 122.928 9.30859 122.756 8.94141C122.592 8.56641 122.342 8.26953 122.006 8.05078C121.67 7.83203 121.241 7.72266 120.717 7.72266C120.272 7.72266 119.889 7.82031 119.569 8.01563C119.248 8.21094 118.987 8.48438 118.784 8.83594C118.588 9.1875 118.44 9.60156 118.338 10.0781C118.245 10.5469 118.198 11.0625 118.198 11.625V12.0938C118.198 12.6016 118.268 13.0703 118.409 13.5C118.557 13.9297 118.764 14.3008 119.03 14.6133C119.303 14.9258 119.631 15.168 120.014 15.3398C120.405 15.5117 120.846 15.5977 121.338 15.5977C121.948 15.5977 122.514 15.4805 123.038 15.2461C123.569 15.0039 124.026 14.6406 124.409 14.1563L126.049 15.9375C125.784 16.3203 125.42 16.6875 124.959 17.0391C124.506 17.3906 123.959 17.6797 123.319 17.9063C122.678 18.125 121.948 18.2344 121.127 18.2344ZM134.027 7.94531V18H130.641V5.32031H133.816L134.027 7.94531ZM133.559 11.2148H132.621C132.621 10.332 132.727 9.51953 132.938 8.77734C133.156 8.02734 133.473 7.37891 133.887 6.83203C134.309 6.27734 134.828 5.84766 135.445 5.54297C136.062 5.23828 136.777 5.08594 137.59 5.08594C138.152 5.08594 138.668 5.17188 139.137 5.34375C139.605 5.50781 140.008 5.76953 140.344 6.12891C140.688 6.48047 140.953 6.94141 141.141 7.51172C141.328 8.07422 141.422 8.75 141.422 9.53906V18H138.047V9.91406C138.047 9.33594 137.969 8.89063 137.812 8.57813C137.656 8.26563 137.434 8.04688 137.145 7.92188C136.863 7.79688 136.523 7.73438 136.125 7.73438C135.688 7.73438 135.305 7.82422 134.977 8.00391C134.656 8.18359 134.391 8.43359 134.18 8.75391C133.969 9.06641 133.812 9.43359 133.711 9.85547C133.609 10.2773 133.559 10.7305 133.559 11.2148ZM141.105 10.8281L139.898 10.9805C139.898 10.1523 140 9.38281 140.203 8.67188C140.414 7.96094 140.723 7.33594 141.129 6.79688C141.543 6.25781 142.055 5.83984 142.664 5.54297C143.273 5.23828 143.977 5.08594 144.773 5.08594C145.383 5.08594 145.938 5.17578 146.438 5.35547C146.938 5.52734 147.363 5.80469 147.715 6.1875C148.074 6.5625 148.348 7.05469 148.535 7.66406C148.73 8.27344 148.828 9.01953 148.828 9.90234V18H145.441V9.90234C145.441 9.31641 145.363 8.87109 145.207 8.56641C145.059 8.25391 144.84 8.03906 144.551 7.92188C144.27 7.79688 143.934 7.73438 143.543 7.73438C143.137 7.73438 142.781 7.81641 142.477 7.98047C142.172 8.13672 141.918 8.35547 141.715 8.63672C141.512 8.91797 141.359 9.24609 141.258 9.62109C141.156 9.98828 141.105 10.3906 141.105 10.8281ZM157.404 5.32031V18H154.017V5.32031L157.404 5.32031ZM153.806 2.01563C153.806 1.52344 153.978 1.11719 154.322 0.796875C154.666 0.476563 155.127 0.316406 155.705 0.316406C156.275 0.316406 156.732 0.476563 157.076 0.796875C157.427 1.11719 157.603 1.52344 157.603 2.01563C157.603 2.50781 157.427 2.91406 157.076 3.23438C156.732 3.55469 156.275 3.71484 155.705 3.71484C155.127 3.71484 154.666 3.55469 154.322 3.23438C153.978 2.91406 153.806 2.50781 153.806 2.01563ZM169.448 14.4961C169.448 14.2539 169.378 14.0352 169.237 13.8398C169.097 13.6445 168.835 13.4648 168.452 13.3008C168.077 13.1289 167.534 12.9727 166.823 12.832C166.183 12.6914 165.585 12.5156 165.03 12.3047C164.484 12.0859 164.007 11.8242 163.601 11.5195C163.202 11.2148 162.89 10.8555 162.663 10.4414C162.437 10.0195 162.323 9.53906 162.323 9C162.323 8.46875 162.437 7.96875 162.663 7.5C162.898 7.03125 163.23 6.61719 163.659 6.25781C164.097 5.89063 164.628 5.60547 165.253 5.40234C165.886 5.19141 166.597 5.08594 167.386 5.08594C168.487 5.08594 169.433 5.26172 170.222 5.61328C171.019 5.96484 171.628 6.44922 172.05 7.06641C172.48 7.67578 172.695 8.37109 172.695 9.15234H169.32C169.32 8.82422 169.249 8.53125 169.109 8.27344C168.976 8.00781 168.765 7.80078 168.476 7.65234C168.195 7.49609 167.827 7.41797 167.374 7.41797C166.999 7.41797 166.675 7.48438 166.402 7.61719C166.128 7.74219 165.917 7.91406 165.769 8.13281C165.628 8.34375 165.558 8.57813 165.558 8.83594C165.558 9.03125 165.597 9.20703 165.675 9.36328C165.761 9.51172 165.898 9.64844 166.085 9.77344C166.273 9.89844 166.515 10.0156 166.812 10.125C167.116 10.2266 167.491 10.3203 167.937 10.4063C168.851 10.5938 169.667 10.8398 170.386 11.1445C171.105 11.4414 171.675 11.8477 172.097 12.3633C172.519 12.8711 172.73 13.5391 172.73 14.3672C172.73 14.9297 172.605 15.4453 172.355 15.9141C172.105 16.3828 171.745 16.793 171.277 17.1445C170.808 17.4883 170.245 17.7578 169.589 17.9531C168.941 18.1406 168.21 18.2344 167.398 18.2344C166.218 18.2344 165.218 18.0234 164.398 17.6016C163.585 17.1797 162.968 16.6445 162.546 15.9961C162.132 15.3398 161.925 14.668 161.925 13.9805H165.124C165.14 14.4414 165.257 14.8125 165.476 15.0938C165.702 15.375 165.987 15.5781 166.331 15.7031C166.683 15.8281 167.062 15.8906 167.468 15.8906C167.905 15.8906 168.269 15.832 168.558 15.7148C168.847 15.5898 169.066 15.4258 169.214 15.2227C169.37 15.0117 169.448 14.7695 169.448 14.4961ZM183.532 5.32031V7.71094H176.149V5.32031H183.532ZM177.977 2.19141L181.352 2.19141V14.1797C181.352 14.5469 181.399 14.8281 181.493 15.0234C181.595 15.2188 181.743 15.3555 181.938 15.4336C182.134 15.5039 182.38 15.5391 182.677 15.5391C182.888 15.5391 183.075 15.5313 183.239 15.5156C183.411 15.4922 183.555 15.4688 183.673 15.4453L183.684 17.9297C183.395 18.0234 183.083 18.0977 182.747 18.1523C182.411 18.207 182.04 18.2344 181.634 18.2344C180.891 18.2344 180.243 18.1133 179.688 17.8711C179.141 17.6211 178.72 17.2227 178.423 16.6758C178.126 16.1289 177.977 15.4102 177.977 14.5195V2.19141ZM194.709 14.4961C194.709 14.2539 194.639 14.0352 194.498 13.8398C194.358 13.6445 194.096 13.4648 193.713 13.3008C193.338 13.1289 192.795 12.9727 192.084 12.832C191.444 12.6914 190.846 12.5156 190.291 12.3047C189.745 12.0859 189.268 11.8242 188.862 11.5195C188.463 11.2148 188.151 10.8555 187.924 10.4414C187.698 10.0195 187.584 9.53906 187.584 9C187.584 8.46875 187.698 7.96875 187.924 7.5C188.159 7.03125 188.491 6.61719 188.92 6.25781C189.358 5.89063 189.889 5.60547 190.514 5.40234C191.147 5.19141 191.858 5.08594 192.647 5.08594C193.748 5.08594 194.694 5.26172 195.483 5.61328C196.28 5.96484 196.889 6.44922 197.311 7.06641C197.741 7.67578 197.955 8.37109 197.955 9.15234H194.58C194.58 8.82422 194.51 8.53125 194.37 8.27344C194.237 8.00781 194.026 7.80078 193.737 7.65234C193.455 7.49609 193.088 7.41797 192.635 7.41797C192.26 7.41797 191.936 7.48438 191.663 7.61719C191.389 7.74219 191.178 7.91406 191.03 8.13281C190.889 8.34375 190.819 8.57813 190.819 8.83594C190.819 9.03125 190.858 9.20703 190.936 9.36328C191.022 9.51172 191.159 9.64844 191.346 9.77344C191.534 9.89844 191.776 10.0156 192.073 10.125C192.377 10.2266 192.752 10.3203 193.198 10.4063C194.112 10.5938 194.928 10.8398 195.647 11.1445C196.366 11.4414 196.936 11.8477 197.358 12.3633C197.78 12.8711 197.991 13.5391 197.991 14.3672C197.991 14.9297 197.866 15.4453 197.616 15.9141C197.366 16.3828 197.006 16.793 196.538 17.1445C196.069 17.4883 195.506 17.7578 194.85 17.9531C194.202 18.1406 193.471 18.2344 192.659 18.2344C191.479 18.2344 190.479 18.0234 189.659 17.6016C188.846 17.1797 188.229 16.6445 187.807 15.9961C187.393 15.3398 187.186 14.668 187.186 13.9805H190.385C190.401 14.4414 190.518 14.8125 190.737 15.0938C190.963 15.375 191.248 15.5781 191.592 15.7031C191.944 15.8281 192.323 15.8906 192.729 15.8906C193.166 15.8906 193.53 15.832 193.819 15.7148C194.108 15.5898 194.327 15.4258 194.475 15.2227C194.631 15.0117 194.709 14.7695 194.709 14.4961Z" fill="#333538"/>
</g>
<defs>
<filter id="filter0_b_1_2" x="-3.34607" y="-4" width="205.337" height="26.2344" filterUnits="userSpaceOnUse" color-interpolation-filters="sRGB">
<feFlood flood-opacity="0" result="BackgroundImageFix"/>
<feGaussianBlur in="BackgroundImageFix" stdDeviation="2"/>
<feComposite in2="SourceAlpha" operator="in" result="effect1_backgroundBlur_1_2"/>
<feBlend mode="normal" in="SourceGraphic" in2="effect1_backgroundBlur_1_2" result="shape"/>
</filter>
</defs>
</svg>
